Coordinates
version=1
nRows=8
nColumns=36
inDegrees=yes

Units are S.I. units (second, meters, Newtons, ...)
If the header above contains a line with 'inDegrees', this indicates whether rotational values are in degrees (yes) or radians (no).

endheader
time	pelvis_tilt	pelvis_list	pelvis_rotation	pelvis_tx	pelvis_ty	pelvis_tz	hip_flexion_r	hip_adduction_r	hip_rotation_r	knee_angle_r	knee_angle_r_beta	ankle_angle_r	subtalar_angle_r	mtp_angle_r	hip_flexion_l	hip_adduction_l	hip_rotation_l	knee_angle_l	knee_angle_l_beta	ankle_angle_l	subtalar_angle_l	mtp_angle_l	lumbar_extension	lumbar_bending	lumbar_rotation	arm_flex_r	arm_add_r	arm_rot_r	elbow_flex_r	pro_sup_r	arm_flex_l	arm_add_l	arm_rot_l	elbow_flex_l	pro_sup_l
      0.75000000	     -4.97163977	      8.21014764	     -0.62274072	      0.77062938	      0.92189816	     -0.21899532	     -2.04166438	     -8.03621303	      0.99563131	     48.34262355	      0.84373795	     -4.03297050	     -9.21632758	     -7.05684714	     23.93572258	     10.58976799	     -0.85834418	     18.99645337	      0.33155066	     -1.85382459	    -11.70415632	     -7.05684714	     -4.15092394	    -22.95355887	     11.36048934	     -4.81775659	    -10.81807121	     19.32736725	     42.96246973	    106.11879565	    -11.22216030	     -8.98880223	    -11.30462262	     27.89947840	     93.86839866
      0.76000000	     -5.04865603	      8.11120679	     -0.90881512	      0.78057526	      0.92378165	     -0.21926425	     -0.00414027	     -7.98222920	      1.60682099	     51.46769051	      0.89828066	     -4.50758887	    -10.61635695	     -7.06533410	     23.12642644	     10.49393375	     -0.80820799	     18.67229140	      0.32589296	     -1.45544598	    -11.77630837	     -7.06533410	     -4.09059637	    -22.95258517	     11.11461103	     -4.81888194	    -10.87904935	     19.99563612	     43.12681230	    106.35263364	    -10.88699268	     -8.89654314	    -11.45278969	     28.20680891	     93.92842303
      0.77000000	     -4.75254247	      7.75078357	     -1.07887031	      0.79031483	      0.92628239	     -0.21960619	      1.46879351	     -7.62430779	      2.00041603	     54.07267795	      0.94374627	     -4.53295195	    -11.25888466	     -7.06711643	     21.94383620	     10.17097352	     -0.67694586	     18.41624948	      0.32142419	     -1.20037592	    -11.77123279	     -7.06711643	     -4.62528927	    -22.61082678	     10.58538660	     -4.68821066	    -10.87364752	     20.13004307	     43.18812018	    106.41028523	    -10.38211311	     -8.75632605	    -11.41398319	     28.40140184	     93.96145574
      0.78000000	     -5.10258525	      7.71702602	     -1.36961344	      0.79999527	      0.92780938	     -0.21972446	      3.84359978	     -7.57835337	      2.57635120	     56.76754450	      0.99078056	     -4.56996005	    -13.25248465	     -7.07580761	     21.38030496	     10.14311825	     -0.46712895	     17.95368458	      0.31335091	     -0.66177277	    -11.83067727	     -7.07580761	     -4.18966931	    -22.68247305	     10.25212824	     -4.69535407	    -10.96745926	     21.04771169	     43.44280442	    106.74873890	    -10.17861085	     -8.78648064	    -11.58112518	     28.86530099	     94.03641859
      0.79000000	     -5.10011711	      7.43299737	     -1.52211414	      0.80948593	      0.92993345	     -0.21999325	      5.66213312	     -7.22422382	      2.97971655	     58.90691210	      1.02811957	     -4.60227246	    -14.60964176	     -7.08625788	     20.46307223	      9.91173931	     -0.17917541	     17.57073994	      0.30666726	     -0.28174649	    -11.79642176	     -7.08625788	     -4.32769525	    -22.43453510	      9.59748223	     -4.48652370	    -11.04984524	     21.70590984	     43.42972464	    107.05755849	     -9.83548360	     -8.74903600	    -11.76839860	     29.27217239	     94.12699411
      0.80000000	     -4.90888689	      7.02347239	     -1.66727659	      0.81894452	      0.93235120	     -0.22018101	      7.17522626	     -6.74187174	      3.27523855	     60.63611663	      1.05829988	     -4.32136406	    -15.21566201	     -7.08864774	     19.32235671	      9.52430400	     -0.04721988	     17.12902304	      0.29895785	     -0.00860046	    -11.75124286	     -7.08864774	     -4.70199102	    -22.02217216	      8.87498213	     -4.31292027	    -10.98706572	     21.77109048	     43.50840570	    107.11260320	     -9.33034343	     -8.74061538	    -11.75368621	     29.44717757	     94.16817861
      0.81000000	     -4.91972081	      6.72869599	     -1.74335193	      0.82834423	      0.93445173	     -0.22049135	      8.89341259	     -6.37686500	      3.50231990	     62.11113431	      1.08404380	     -3.97955867	    -16.08703515	     -7.09272497	     18.28686363	      9.30755600	      0.28537701	     16.44399875	      0.28700192	      0.43695010	    -11.61897068	     -7.09272497	     -4.82721838	    -21.74938012	      8.17373141	     -4.22628537	    -10.97427505	     21.96920341	     43.61375500	    107.20245395	     -8.87286712	     -8.80373091	    -11.75531626	     29.71940034	     94.24116200
      0.82000000	     -4.87585073	      6.39405863	     -1.75993334	      0.83763956	      0.93655371	     -0.22089532	     10.49034937	     -5.98021573	      3.61819708	     63.25962260	      1.10408870	     -3.84580629	    -16.76723179	     -7.09783776	     17.20219841	      9.05329733	      0.54371020	     15.76807608	      0.27520484	      0.79100611	    -11.41032784	     -7.09783776	     -5.02481744	    -21.39801109	      7.42257949	     -4.13089165	    -10.98011455	     22.14726683	     43.62769494	    107.26841470	     -8.35859789	     -8.88538218	    -11.73637566	     30.02467597	     94.34424808
